<svg xmlns="http://www.w3.org/2000/svg" viewBox="0 0 100 100" width="100" height="100">
  <path d="M35.24 73.93Q30.93 73.93 27.49 72.38Q24.05 70.83 22.02 67.99Q20 65.15 20 61.36Q20 55.51 23.57 52.28Q27.14 49.05 34.38 47.59L49.18 44.49Q49.18 33.82 39.89 33.82Q35.58 33.82 33.17 35.8Q30.76 37.78 29.9 41.31L20.77 40.7Q22.07 34.16 27.06 30.11Q32.05 26.07 39.89 26.07Q48.67 26.07 53.27 31.06Q57.88 36.05 57.88 44.84V62.91Q57.88 64.46 58.52 65.11Q59.17 65.75 60.55 65.75H63.13V72.9Q62.61 72.98 61.45 73.07Q60.29 73.16 59.17 73.16Q51.42 73.16 49.87 66.53L49.78 66.36Q48.06 69.71 44.15 71.82Q40.23 73.93 35.24 73.93ZM36.53 66.79Q42.81 66.79 46 63.56Q49.18 60.33 49.18 54.91V51.38L36.44 53.96Q32.31 54.82 30.67 56.41Q29.04 58.01 29.04 60.67Q29.04 63.6 31.02 65.19Q33 66.79 36.53 66.79Z" fill="#FFFFFF"/>
  <path d="M68.29 72.9V61.54H80V72.9Z" fill="#3E5BD9"/>
</svg>
